<svg data-logo="logo" xmlns="http://www.w3.org/2000/svg" viewBox="0 0 256 46">
            <g id="logogram" transform="translate(0, 6) rotate(0)" style="opacity: 1;"><path d="M16.0573 0H37.1389L21.6397 22.9729H0.558105L16.0573 0Z" fill="#FFD454"></path><path d="M16.9805 25.102L10.9773 34H33.0589L48.5581 11.0271H32.2605L22.7645 25.102H16.9805Z" fill="#CD9400"></path></g>
            <g id="logotype" transform="translate(55, 1)" style="opacity: 1;"><path fill="#111111" d="M20.35 35.24L20.35 35.24Q18.15 35.24 16.47 34.04Q14.79 32.83 14.09 30.70L14.09 30.70L14.09 44.27L8.17 44.27L8.17 15.47L14.09 15.47L14.09 19.81Q14.79 17.64 16.47 16.43Q18.15 15.22 20.35 15.22L20.35 15.22Q22.91 15.22 24.80 16.55Q26.69 17.88 27.72 20.16Q28.75 22.43 28.75 25.23L28.75 25.23Q28.75 28.07 27.72 30.33Q26.69 32.59 24.80 33.91Q22.91 35.24 20.35 35.24ZM18.43 30.06L18.43 30.06Q19.58 30.06 20.58 29.50Q21.58 28.95 22.15 27.86Q22.73 26.77 22.73 25.23L22.73 25.23Q22.73 23.73 22.15 22.64Q21.58 21.56 20.58 20.96Q19.58 20.37 18.43 20.37L18.43 20.37Q17.27 20.37 16.27 20.96Q15.28 21.56 14.68 22.64Q14.09 23.73 14.09 25.23L14.09 25.23Q14.09 26.77 14.68 27.86Q15.28 28.95 16.27 29.50Q17.27 30.06 18.43 30.06ZM30.75 28.95L30.75 28.95L30.75 9.10L36.66 9.10L36.66 28.66Q36.66 29.43 37.13 29.82Q37.61 30.20 38.23 30.20L38.23 30.20Q38.66 30.20 39.04 30.06L39.04 30.06L39.98 34.62Q38.59 35.24 36.84 35.24L36.84 35.24Q35.37 35.24 33.97 34.65Q32.56 34.05 31.66 32.67Q30.75 31.29 30.75 28.95ZM54.75 32.02L54.75 32.02L54.75 15.47L60.67 15.47L60.67 35L57.73 35Q56.33 35 55.54 34.21Q54.75 33.42 54.75 32.02ZM48.77 35.24L48.77 35.24Q46.39 35.24 44.73 34.20Q43.06 33.15 42.19 31.25Q41.31 29.36 41.31 26.84L41.31 26.84L41.31 15.47L47.20 15.47L47.20 25.97Q47.20 28 48.23 29.12Q49.26 30.24 50.97 30.24L50.97 30.24Q52.16 30.24 53.00 29.64Q53.84 29.05 54.30 28Q54.75 26.95 54.75 25.62L54.75 25.62L55.56 26.63Q55.45 29.64 54.53 31.54Q53.60 33.42 52.09 34.34Q50.59 35.24 48.77 35.24ZM71.38 35.24L71.38 35.24Q69.25 35.24 67.48 34.58Q65.71 33.91 64.52 32.71Q63.33 31.50 62.80 29.93L62.80 29.93L68.27 28.70Q68.51 29.71 69.33 30.29Q70.16 30.87 71.34 30.87L71.34 30.87Q72.50 30.87 73.13 30.40Q73.76 29.93 73.76 29.26L73.76 29.26Q73.76 28.45 72.99 28.05Q72.22 27.65 70.98 27.37Q69.73 27.09 68.37 26.77Q67.00 26.46 65.78 25.85Q64.55 25.23 63.78 24.15Q63.02 23.06 63.02 21.31L63.02 21.31Q63.02 19.63 63.94 18.27Q64.87 16.90 66.64 16.06Q68.41 15.22 70.96 15.22L70.96 15.22Q73.09 15.22 74.72 15.89Q76.35 16.55 77.42 17.73Q78.48 18.90 78.94 20.51L78.94 20.51L73.72 21.88Q73.52 20.82 72.78 20.23Q72.05 19.63 70.82 19.63L70.82 19.63Q69.70 19.63 69.14 20.05Q68.58 20.47 68.58 21.17L68.58 21.17Q68.58 21.95 69.35 22.38Q70.12 22.82 71.34 23.10Q72.57 23.38 73.94 23.75Q75.30 24.11 76.53 24.74Q77.75 25.38 78.52 26.49Q79.29 27.61 79.29 29.40L79.29 29.40Q79.29 31.08 78.33 32.41Q77.36 33.74 75.58 34.49Q73.80 35.24 71.38 35.24ZM90.95 35.24L90.95 35.24Q88.81 35.24 86.87 34.58Q84.93 33.91 83.44 32.64Q81.95 31.36 81.09 29.54Q80.24 27.72 80.24 25.38L80.24 25.38Q80.24 23.13 81.06 21.28Q81.88 19.42 83.30 18.06Q84.72 16.69 86.59 15.96Q88.46 15.22 90.56 15.22L90.56 15.22Q92.28 15.22 93.83 15.68Q95.39 16.13 96.63 17.01Q97.88 17.88 98.59 19.07Q99.31 20.27 99.31 21.73L99.31 21.73Q99.31 23.59 98.26 24.81Q97.21 26.04 95.51 26.74Q93.82 27.44 91.80 27.74Q89.79 28.04 87.83 28L87.83 28Q87.59 28 87.25 27.98Q86.92 27.96 86.64 27.95Q86.36 27.93 86.22 27.93L86.22 27.93Q86.43 28.73 87.11 29.38Q87.80 30.03 88.85 30.41Q89.90 30.80 91.02 30.80L91.02 30.80Q92.14 30.80 93.17 30.41Q94.20 30.03 95.04 29.43Q95.88 28.84 96.48 28.11L96.48 28.11L100.26 31.08Q99.21 32.48 97.70 33.41Q96.20 34.34 94.46 34.79Q92.73 35.24 90.95 35.24ZM87.87 24.11L87.87 24.11Q88.81 24.11 89.83 24.01Q90.84 23.91 91.70 23.64Q92.56 23.38 93.10 22.91Q93.64 22.43 93.64 21.70L93.64 21.70Q93.64 21.10 93.22 20.65Q92.80 20.20 92.10 19.95Q91.40 19.70 90.60 19.70L90.60 19.70Q89.20 19.70 88.15 20.37Q87.10 21.03 86.54 22.03Q85.98 23.03 85.91 24.04L85.91 24.04Q86.22 24.08 86.76 24.10Q87.31 24.11 87.87 24.11ZM113.24 35L101.83 35L101.83 10.43L112.82 10.43Q115.38 10.43 117.16 11.22Q118.95 12.00 119.89 13.42Q120.84 14.84 120.84 16.80L120.84 16.80Q120.84 18.62 120.05 19.90Q119.26 21.17 117.93 21.88Q116.60 22.57 114.99 22.68L114.99 22.68L115.59 22.26Q117.34 22.29 118.63 23.17Q119.93 24.04 120.66 25.39Q121.40 26.74 121.40 28.35L121.40 28.35Q121.40 30.34 120.43 31.85Q119.47 33.35 117.65 34.18Q115.83 35 113.24 35L113.24 35ZM107.75 24.71L107.75 30.24L112.19 30.24Q113.73 30.24 114.55 29.54Q115.38 28.84 115.38 27.54L115.38 27.54Q115.38 26.18 114.50 25.45Q113.63 24.71 112.12 24.71L112.12 24.71L107.75 24.71ZM107.75 15.15L107.75 20.37L111.70 20.37Q113.21 20.37 114.01 19.72Q114.82 19.07 114.82 17.81L114.82 17.81Q114.82 16.52 114.01 15.84Q113.21 15.15 111.70 15.15L111.70 15.15L107.75 15.15ZM132.49 35.24L132.49 35.24Q129.62 35.24 127.35 34.04Q125.07 32.83 123.76 30.55Q122.45 28.28 122.45 25.23L122.45 25.23Q122.45 22.16 123.78 19.91Q125.11 17.67 127.40 16.45Q129.69 15.22 132.56 15.22L132.56 15.22Q135.47 15.22 137.76 16.43Q140.05 17.64 141.38 19.90Q142.71 22.16 142.71 25.23L142.71 25.23Q142.71 28.28 141.35 30.55Q139.98 32.83 137.67 34.04Q135.36 35.24 132.49 35.24ZM132.49 30.13L132.49 30.13Q133.58 30.13 134.54 29.59Q135.50 29.05 136.10 27.96Q136.69 26.88 136.69 25.23L136.69 25.23Q136.69 23.55 136.10 22.49Q135.50 21.42 134.57 20.89Q133.65 20.37 132.56 20.37L132.56 20.37Q131.48 20.37 130.55 20.89Q129.62 21.42 129.04 22.49Q128.47 23.55 128.47 25.23L128.47 25.23Q128.47 26.88 129.01 27.96Q129.55 29.05 130.48 29.59Q131.41 30.13 132.49 30.13ZM151.92 35.24L151.92 35.24Q149.36 35.24 147.45 33.91Q145.55 32.59 144.51 30.33Q143.48 28.07 143.48 25.23L143.48 25.23Q143.48 22.43 144.51 20.16Q145.55 17.88 147.45 16.55Q149.36 15.22 151.92 15.22L151.92 15.22Q154.16 15.22 155.82 16.43Q157.48 17.64 158.15 19.81L158.15 19.81L158.15 15.47L164.06 15.47L164.06 35L161.16 35Q159.76 35 158.95 34.21Q158.15 33.42 158.15 32.02L158.15 32.02L158.15 30.70Q157.48 32.83 155.82 34.04Q154.16 35.24 151.92 35.24ZM153.84 30.06L153.84 30.06Q155.00 30.06 155.98 29.50Q156.96 28.95 157.55 27.86Q158.15 26.77 158.15 25.23L158.15 25.23Q158.15 23.73 157.55 22.64Q156.96 21.56 155.98 20.96Q155.00 20.37 153.84 20.37L153.84 20.37Q152.65 20.37 151.67 20.96Q150.69 21.56 150.11 22.64Q149.54 23.73 149.54 25.23L149.54 25.23Q149.54 26.77 150.11 27.86Q150.69 28.95 151.69 29.50Q152.69 30.06 153.84 30.06ZM173.13 35L167.21 35L167.21 15.47L173.13 15.47L173.13 35ZM173.13 26.60L172.22 26.60L173.13 20.20Q173.76 17.92 175.33 16.61Q176.91 15.29 179.36 15.29L179.36 15.29L179.36 21.45Q178.97 21.38 178.62 21.35Q178.27 21.31 177.92 21.31L177.92 21.31Q176.63 21.31 175.54 21.93Q174.46 22.54 173.79 23.71Q173.13 24.88 173.13 26.60L173.13 26.60ZM188.32 35.24L188.32 35.24Q185.76 35.24 183.85 33.91Q181.95 32.59 180.91 30.33Q179.88 28.07 179.88 25.23L179.88 25.23Q179.88 22.43 180.91 20.16Q181.95 17.88 183.85 16.55Q185.76 15.22 188.32 15.22L188.32 15.22Q190.56 15.22 192.22 16.43Q193.88 17.64 194.55 19.81L194.55 19.81L194.55 9.10L200.46 9.10L200.46 35L197.56 35Q196.16 35 195.35 34.21Q194.55 33.42 194.55 32.02L194.55 32.02L194.55 30.70Q193.88 32.83 192.22 34.04Q190.56 35.24 188.32 35.24ZM190.24 30.06L190.24 30.06Q191.40 30.06 192.38 29.50Q193.36 28.95 193.95 27.86Q194.55 26.77 194.55 25.23L194.55 25.23Q194.55 23.73 193.95 22.64Q193.36 21.56 192.38 20.96Q191.40 20.37 190.24 20.37L190.24 20.37Q189.05 20.37 188.07 20.96Q187.09 21.56 186.51 22.64Q185.94 23.73 185.94 25.23L185.94 25.23Q185.94 26.77 186.51 27.86Q187.09 28.95 188.09 29.50Q189.09 30.06 190.24 30.06Z"></path></g>
            
          </svg>